<svg width="46" height="46" viewBox="0 0 46 46" fill="none" xmlns="http://www.w3.org/2000/svg">
<path d="M33.3334 29.3334H31.2267L30.48 28.6134C33.68 24.88 35.3334 19.7867 34.4267 14.3734C33.1734 6.96005 26.9867 1.04005 19.52 0.133384C8.24002 -1.25328 -1.25331 8.24005 0.133354 19.52C1.04002 26.9867 6.96002 33.1734 14.3734 34.4267C19.7867 35.3334 24.88 33.68 28.6134 30.48L29.3334 31.2267V33.3334L40.6667 44.6667C41.76 45.76 43.5467 45.76 44.64 44.6667C45.7334 43.5734 45.7334 41.7867 44.64 40.6934L33.3334 29.3334ZM17.3334 29.3334C10.6934 29.3334 5.33335 23.9734 5.33335 17.3334C5.33335 10.6934 10.6934 5.33338 17.3334 5.33338C23.9734 5.33338 29.3334 10.6934 29.3334 17.3334C29.3334 23.9734 23.9734 29.3334 17.3334 29.3334Z" fill="black" fill-opacity="0.67"/>
</svg>
