<svg width="64" height="64" viewBox="0 0 64 64" fill="none" xmlns="http://www.w3.org/2000/svg">
<path d="M52.2186 24.6067L39.3119 23.4867L34.2719 11.62C33.3652 9.46 30.2719 9.46 29.3652 11.62L24.3252 23.5133L11.4452 24.6067C9.09855 24.7933 8.13855 27.7267 9.92522 29.2733L19.7119 37.7533L16.7786 50.34C16.2452 52.6333 18.7252 54.4467 20.7519 53.22L31.8186 46.5533L42.8852 53.2467C44.9119 54.4733 47.3919 52.66 46.8586 50.3667L43.9252 37.7533L53.7119 29.2733C55.4986 27.7267 54.5652 24.7933 52.2186 24.6067ZM31.8186 41.5667L21.7919 47.62L24.4586 36.2067L15.6052 28.5267L27.2852 27.5133L31.8186 16.7667L36.3786 27.54L48.0586 28.5533L39.2052 36.2333L41.8719 47.6467L31.8186 41.5667Z" fill="black" fill-opacity="0.54"/>
</svg>
